<?xml version="1.0" standalone="no"?>
<svg xmlns="http://www.w3.org/2000/svg" viewBox="0 0 98.891 114.189" width="100.000" height="100.000"><polygon fill="none" stroke="#dd00ff" stroke-width="3" points="97.391,29.29725 97.391,84.89175 49.4455,112.689 1.5,84.89175 1.5,29.29725 49.4455,1.5"></polygon><g fill="#660ebe" color="#660ebe" transform="translate(27.445500000000003 22.5) scale(0.7857143)"><svg width="56.0" height="54.0" x="0.0" y="0.0" viewBox="0 0 56 54"><path fill="currentColor" fill-rule="evenodd" d="M20.14 11.806c.69 0 1.248.302 1.248.676 0 .373-.559.676-1.248.676-.69 0-1.248-.303-1.248-.676 0-.374.559-.676 1.248-.676m20.405 21.523l.534.01c5.6.225 9.9 4.467 9.9 10.137 0 0 .297 5.7-3.224 9.674-.285.323-.808.047-.72-.374.324-1.532.214-3.749-2.713-4.567-2.838-.792-5.67-.042-8.392.814-5.072 1.593-10.064 4.536-15.43 4.937-2.73.204-5.532-.369-7.9-1.742-4.398-2.548-6.242-7.656-6.572-12.497-.023-.334-.097-1.047.156-1.103.367-.077.692.66.855.874.337.445.72.855 1.141 1.221 2.783 2.425 6.471 2.177 9.853 1.42 3.721-.832 6.965-2.528 10.252-4.388 3.181-1.8 6.462-3.691 10.13-4.252.88-.135 1.774-.19 2.664-.154zm1.404 5.878c-1.67-.286-3.379-.148-5.01.232-1.627.412-3.168 1.058-4.6 1.858a29.406 29.406 0 0 0-4.054 2.738c1.534-.572 3.004-1.25 4.477-1.864 1.477-.602 2.954-1.16 4.47-1.518a16.128 16.128 0 0 1 4.608-.477 13.26 13.26 0 0 1 4.59 1.103c-1.223-1.096-2.818-1.798-4.481-2.072zM21.752 0c1.066 0 3.484 3.12 3.484 3.12S32.44 7.49 35.533 15.653c3.094 8.165-3.068 15.965-3.068 15.965a21.32 21.32 0 0 0 .759-4.477c.047-.834.038-1.671-.026-2.503-.022-.278-.138-.71-.229-1.134-.056-.262-.4-.307-.537-.077a4.679 4.679 0 0 1-1.004 1.177c-.049-1.565-.206-3.147-.744-4.618-.462-1.262-1.228-2.444-2.29-3.253a.252.252 0 0 0-.401.243 4.672 4.672 0 0 1-.116 2.121c-1.659-1.66-3.973-2.53-6.294-2.886-1.924-.295-3.877-.266-5.827-.224-.377.008-.494.51-.164.692 1.58.875 3.253 1.227 5.08 1.589 2.24.444 4.149 1.495 5.5 3.366 2.03 2.809 1.345 9.595.963 12.34a2.533 2.533 0 0 1-1.21 1.827c-2.498 1.493-5.553 2.77-9.429 3.567-1.91.392-3.986.347-5.839-.3-.903-.315-1.758-.85-2.29-1.646-.653-.976-.749-2.253-.45-3.389.3-1.136.96-2.146 1.717-3.044 2.322-2.753 5.518-4.529 8.224-6.853 1.123-.964 2.342-2.005 2.822-3.471.023-.068.295-1.26.084-1.267-3.207-.114-8.018-1.093-9.7-4.246-.1-.185-.188-.397-.136-.6.065-.257.325-.407.56-.528 2.168-1.113 4.257-2.135 6.102-3.767a19.55 19.55 0 0 0 2.2-2.29c.297-.364 1.429-1.346 1.39-1.83 0-.001-.494-6.137.572-6.137z"></path></svg></g><path fill="#660ebe" fill-rule="nonzero" d="M11.98 10.61L11.98 10.61Q11.98 4.56 11.70 1.99L11.70 1.99L10.72 1.90Q10.67 1.46 10.67 1.13Q10.67 0.81 10.75 0.34L10.75 0.34Q11.65 0.36 12.82 0.36Q14 0.36 14.87 0.34L14.87 0.34Q14.95 0.76 14.95 1.08Q14.95 1.40 14.90 1.90L14.90 1.90L13.97 1.99Q13.75 4.73 13.75 8.50Q13.75 12.26 13.64 13.40Q13.52 14.53 13.15 15.62Q12.77 16.72 12.10 17.36L12.10 17.36Q10.64 18.76 7.56 18.76L7.56 18.76Q3.61 18.76 2.38 16.55L2.38 16.55Q1.76 15.37 1.55 14.03Q1.34 12.68 1.34 8.62Q1.34 4.56 1.06 1.99L1.06 1.99L0.06 1.90Q0 1.46 0 1.13Q0 0.81 0.08 0.34L0.08 0.34Q1.06 0.36 2.35 0.36Q3.64 0.36 4.59 0.34L4.59 0.34Q4.68 0.76 4.68 1.08Q4.68 1.40 4.62 1.90L4.62 1.90L3.67 1.99Q3.44 4.73 3.44 10.61L3.44 10.61Q3.44 13.75 4.31 15.22Q5.18 16.69 7.76 16.69Q10.33 16.69 11.16 15.22Q11.98 13.75 11.98 10.61ZM30.63 16.91L30.63 16.91Q28.14 18.76 24.75 18.76Q21.36 18.76 19.70 16.46Q18.03 14.17 18.03 9.44L18.03 9.44Q18.03 0 25.06 0L25.06 0Q27.02 0 28.39 0.77Q29.76 1.54 30.35 2.97L30.35 2.97Q30.52 3.47 30.52 4.06L30.52 4.06Q30.52 5.74 29.06 5.74L29.06 5.74Q28.20 5.74 27.72 5.21Q27.24 4.68 27.24 3.84Q27.24 3.00 27.58 2.52L27.58 2.52Q26.68 1.65 25.06 1.65L25.06 1.65Q22.74 1.65 21.53 3.57Q20.33 5.49 20.33 9.21L20.33 9.21Q20.33 16.69 24.98 16.69L24.98 16.69Q27.24 16.69 28.81 15.40L28.81 15.40Q28.78 13.16 28.62 11.56L28.62 11.56Q25.26 11.68 24.11 11.87L24.11 11.87Q23.97 11.12 23.97 10.42Q23.97 9.72 24.00 9.46L24.00 9.46Q25.42 9.69 27.58 9.69Q29.74 9.69 30.91 9.60L30.91 9.60Q30.63 12.57 30.63 16.91Z" transform="translate(33.99, 72.929)"></path></svg>